<svg width="90" height="43" viewBox="0 0 90 43" fill="black" xmlns="http://www.w3.org/2000/svg">
<path d="M36.4041 40H35.2733V36.0566H30.9725V40H29.8475V31.4688H30.9725V35.1367H35.2733V31.4688H36.4041V40ZM37.9451 36.7715C37.9451 36.1504 38.0662 35.5918 38.3084 35.0957C38.5545 34.5996 38.8944 34.2168 39.3279 33.9473C39.7654 33.6777 40.2635 33.543 40.8221 33.543C41.6854 33.543 42.3826 33.8418 42.9139 34.4395C43.449 35.0371 43.7166 35.832 43.7166 36.8242V36.9004C43.7166 37.5176 43.5975 38.0723 43.3592 38.5645C43.1248 39.0527 42.7869 39.4336 42.3455 39.707C41.908 39.9805 41.4041 40.1172 40.8338 40.1172C39.9744 40.1172 39.2772 39.8184 38.742 39.2207C38.2108 38.623 37.9451 37.832 37.9451 36.8477V36.7715ZM39.035 36.9004C39.035 37.6035 39.1971 38.168 39.5213 38.5938C39.8494 39.0195 40.2869 39.2324 40.8338 39.2324C41.3846 39.2324 41.8221 39.0176 42.1463 38.5879C42.4705 38.1543 42.6326 37.5488 42.6326 36.7715C42.6326 36.0762 42.4666 35.5137 42.1346 35.084C41.8065 34.6504 41.369 34.4336 40.8221 34.4336C40.2869 34.4336 39.8553 34.6465 39.5272 35.0723C39.199 35.498 39.035 36.1074 39.035 36.9004ZM46.0955 33.6602L46.1248 34.3633C46.5897 33.8164 47.2166 33.543 48.0057 33.543C48.8924 33.543 49.4959 33.8828 49.8162 34.5625C50.0272 34.2578 50.3006 34.0117 50.6365 33.8242C50.9764 33.6367 51.3768 33.543 51.8377 33.543C53.2283 33.543 53.9354 34.2793 53.9588 35.752V40H52.8748V35.8164C52.8748 35.3633 52.7713 35.0254 52.5643 34.8027C52.3572 34.5762 52.0096 34.4629 51.5213 34.4629C51.119 34.4629 50.785 34.584 50.5194 34.8262C50.2537 35.0645 50.0994 35.3867 50.0565 35.793V40H48.9666V35.8457C48.9666 34.9238 48.5154 34.4629 47.6131 34.4629C46.9022 34.4629 46.4158 34.7656 46.1541 35.3711V40H45.0701V33.6602H46.0955ZM58.2303 40.1172C57.3709 40.1172 56.6717 39.8359 56.1326 39.2734C55.5936 38.707 55.324 37.9512 55.324 37.0059V36.8066C55.324 36.1777 55.4432 35.6172 55.6815 35.125C55.9236 34.6289 56.2596 34.2422 56.6893 33.9648C57.1229 33.6836 57.5916 33.543 58.0955 33.543C58.9197 33.543 59.5604 33.8145 60.0174 34.3574C60.4744 34.9004 60.7029 35.6777 60.7029 36.6895V37.1406H56.408C56.4236 37.7656 56.6053 38.2715 56.9529 38.6582C57.3045 39.041 57.7498 39.2324 58.2889 39.2324C58.6717 39.2324 58.9959 39.1543 59.2615 38.998C59.5272 38.8418 59.7596 38.6348 59.9588 38.377L60.6209 38.8926C60.0897 39.709 59.2928 40.1172 58.2303 40.1172ZM58.0955 34.4336C57.658 34.4336 57.2908 34.5938 56.994 34.9141C56.6971 35.2305 56.5135 35.6758 56.4432 36.25H59.619V36.168C59.5877 35.6172 59.4393 35.1914 59.1736 34.8906C58.908 34.5859 58.5486 34.4336 58.0955 34.4336Z" fill="black" fill-opacity="0.54"/>
<path d="M57.2917 11.9032C56.9006 11.9032 56.5834 12.1635 56.5834 12.4844V22.8378H48.9826V16.3386C48.9826 16.0177 48.6654 15.7574 48.2743 15.7574H42.7258C42.3347 15.7574 42.0175 16.0177 42.0175 16.3386V21.492C42.0175 21.8129 42.3347 22.0731 42.7258 22.0731C43.1169 22.0731 43.4341 21.8129 43.4341 21.492V16.9197H47.566V22.8378H34.4166V8.61339L45.4999 1.32601L56.8486 8.78783C57.1539 8.98861 57.5997 8.94813 57.8443 8.69775C58.0889 8.44728 58.0398 8.08165 57.7345 7.88087L45.9429 0.127705C45.6841 -0.0425684 45.3158 -0.0425684 45.057 0.127705L33.2654 7.88087C33.0976 7.99119 33 8.15788 33 8.33435V23.4189C33 23.7397 33.3171 24 33.7083 24H57.2917C57.6829 24 58 23.7397 58 23.4189V12.4844C58 12.1634 57.6829 11.9032 57.2917 11.9032Z" fill="black"/>
</svg>
