<svg width="90" height="52" viewBox="0 0 90 52" fill="black" xmlns="http://www.w3.org/2000/svg">
<path d="M29.3787 45.0566H25.6815V48.0801H29.9764V49H24.5565V40.4688H29.9178V41.3945H25.6815V44.1367H29.3787V45.0566ZM34.8983 47.3184C34.8983 47.0254 34.7869 46.7988 34.5643 46.6387C34.3455 46.4746 33.9608 46.334 33.41 46.2168C32.8631 46.0996 32.4276 45.959 32.1033 45.7949C31.783 45.6309 31.5447 45.4355 31.3885 45.209C31.2361 44.9824 31.16 44.7129 31.16 44.4004C31.16 43.8809 31.3787 43.4414 31.8162 43.082C32.2576 42.7227 32.8201 42.543 33.5037 42.543C34.2225 42.543 34.8045 42.7285 35.2498 43.0996C35.699 43.4707 35.9236 43.9453 35.9236 44.5234H34.8338C34.8338 44.2266 34.7069 43.9707 34.4529 43.7559C34.2029 43.541 33.8865 43.4336 33.5037 43.4336C33.1092 43.4336 32.8006 43.5195 32.5779 43.6914C32.3553 43.8633 32.244 44.0879 32.244 44.3652C32.244 44.627 32.3475 44.8242 32.5545 44.957C32.7615 45.0898 33.1346 45.2168 33.6736 45.3379C34.2166 45.459 34.6561 45.6035 34.992 45.7715C35.3279 45.9395 35.576 46.1426 35.7361 46.3809C35.9002 46.6152 35.9822 46.9023 35.9822 47.2422C35.9822 47.8086 35.7557 48.2637 35.3026 48.6074C34.8494 48.9473 34.2615 49.1172 33.5389 49.1172C33.0311 49.1172 32.5819 49.0273 32.1912 48.8477C31.8006 48.668 31.494 48.418 31.2713 48.0977C31.0526 47.7734 30.9432 47.4238 30.9432 47.0488H32.0272C32.0467 47.4121 32.1912 47.7012 32.4608 47.916C32.7342 48.127 33.0936 48.2324 33.5389 48.2324C33.949 48.2324 34.2772 48.1504 34.5233 47.9863C34.7733 47.8184 34.8983 47.5957 34.8983 47.3184ZM39.9373 48.2324C40.324 48.2324 40.6619 48.1152 40.951 47.8809C41.2401 47.6465 41.4002 47.3535 41.4315 47.002H42.4569C42.4373 47.3652 42.3123 47.7109 42.0819 48.0391C41.8514 48.3672 41.5428 48.6289 41.1561 48.8242C40.7733 49.0195 40.367 49.1172 39.9373 49.1172C39.074 49.1172 38.3865 48.8301 37.8748 48.2559C37.367 47.6777 37.1131 46.8887 37.1131 45.8887V45.707C37.1131 45.0898 37.2264 44.541 37.4529 44.0605C37.6795 43.5801 38.0037 43.207 38.4256 42.9414C38.8514 42.6758 39.3533 42.543 39.9315 42.543C40.6424 42.543 41.2322 42.7559 41.701 43.1816C42.1736 43.6074 42.4256 44.1602 42.4569 44.8398H41.4315C41.4002 44.4297 41.244 44.0938 40.9627 43.832C40.6854 43.5664 40.3416 43.4336 39.9315 43.4336C39.3807 43.4336 38.9529 43.6328 38.6483 44.0312C38.3475 44.4258 38.1971 44.998 38.1971 45.748V45.9531C38.1971 46.6836 38.3475 47.2461 38.6483 47.6406C38.949 48.0352 39.3787 48.2324 39.9373 48.2324ZM47.5897 49C47.5272 48.875 47.4764 48.6523 47.4373 48.332C46.9334 48.8555 46.3319 49.1172 45.6326 49.1172C45.0076 49.1172 44.494 48.9414 44.0916 48.5898C43.6932 48.2344 43.494 47.7852 43.494 47.2422C43.494 46.582 43.744 46.0703 44.244 45.707C44.7479 45.3398 45.4549 45.1562 46.3651 45.1562H47.4197V44.6582C47.4197 44.2793 47.3065 43.9785 47.0799 43.7559C46.8533 43.5293 46.5194 43.416 46.0779 43.416C45.6912 43.416 45.367 43.5137 45.1053 43.709C44.8436 43.9043 44.7127 44.1406 44.7127 44.418H43.6229C43.6229 44.1016 43.7342 43.7969 43.9569 43.5039C44.1834 43.207 44.4881 42.9727 44.8709 42.8008C45.2576 42.6289 45.6815 42.543 46.1424 42.543C46.8729 42.543 47.4451 42.7266 47.8592 43.0938C48.2733 43.457 48.4881 43.959 48.5037 44.5996V47.5176C48.5037 48.0996 48.5779 48.5625 48.7264 48.9062V49H47.5897ZM45.7908 48.1738C46.1307 48.1738 46.4529 48.0859 46.7576 47.9102C47.0623 47.7344 47.283 47.5059 47.4197 47.2246V45.9238H46.5701C45.242 45.9238 44.5779 46.3125 44.5779 47.0898C44.5779 47.4297 44.6912 47.6953 44.9178 47.8867C45.1444 48.0781 45.4354 48.1738 45.7908 48.1738ZM46.7928 40H48.1053L46.535 41.7227H45.6619L46.7928 40ZM51.2283 42.6602L51.2635 43.457C51.7479 42.8477 52.3807 42.543 53.1619 42.543C54.5018 42.543 55.1776 43.2988 55.1893 44.8105V49H54.1053V44.8047C54.1014 44.3477 53.9959 44.0098 53.7889 43.791C53.5858 43.5723 53.2674 43.4629 52.8338 43.4629C52.4822 43.4629 52.1736 43.5566 51.908 43.7441C51.6424 43.9316 51.4354 44.1777 51.2869 44.4824V49H50.2029V42.6602H51.2283ZM59.4549 49.1172C58.5955 49.1172 57.8963 48.8359 57.3572 48.2734C56.8182 47.707 56.5486 46.9512 56.5486 46.0059V45.8066C56.5486 45.1777 56.6678 44.6172 56.9061 44.125C57.1483 43.6289 57.4842 43.2422 57.9139 42.9648C58.3475 42.6836 58.8162 42.543 59.3201 42.543C60.1444 42.543 60.785 42.8145 61.242 43.3574C61.699 43.9004 61.9276 44.6777 61.9276 45.6895V46.1406H57.6326C57.6483 46.7656 57.8299 47.2715 58.1776 47.6582C58.5291 48.041 58.9744 48.2324 59.5135 48.2324C59.8963 48.2324 60.2205 48.1543 60.4861 47.998C60.7518 47.8418 60.9842 47.6348 61.1834 47.377L61.8455 47.8926C61.3143 48.709 60.5174 49.1172 59.4549 49.1172ZM59.3201 43.4336C58.8826 43.4336 58.5154 43.5938 58.2186 43.9141C57.9217 44.2305 57.7381 44.6758 57.6678 45.25H60.8436V45.168C60.8123 44.6172 60.6639 44.1914 60.3983 43.8906C60.1326 43.5859 59.7733 43.4336 59.3201 43.4336ZM66.2518 43.6328C66.0877 43.6055 65.91 43.5918 65.7186 43.5918C65.0076 43.5918 64.5252 43.8945 64.2713 44.5V49H63.1873V42.6602H64.242L64.2596 43.3926C64.6151 42.8262 65.119 42.543 65.7713 42.543C65.9822 42.543 66.1424 42.5703 66.2518 42.625V43.6328Z" fill="black" fill-opacity="0.54"/>
<path d="M32.3021 14.0495C32.1485 14.0495 32.0012 14.1168 31.8926 14.2365C31.784 14.3563 31.7229 14.5187 31.7229 14.6881V28.3119C31.7229 28.4812 31.784 28.6437 31.8926 28.7634C32.0012 28.8832 32.1485 28.9505 32.3021 28.9505C32.4558 28.9505 32.6031 28.8832 32.7117 28.7634C32.8203 28.6437 32.8813 28.4812 32.8813 28.3119V14.6881C32.8813 14.5187 32.8203 14.3563 32.7117 14.2365C32.6031 14.1168 32.4558 14.0495 32.3021 14.0495Z" fill="black"/>
<path d="M35.3912 14.0495C35.2375 14.0495 35.0902 14.1168 34.9816 14.2365C34.873 14.3563 34.812 14.5187 34.812 14.6881V28.3119C34.812 28.4812 34.873 28.6437 34.9816 28.7634C35.0902 28.8832 35.2375 28.9505 35.3912 28.9505C35.5448 28.9505 35.6921 28.8832 35.8007 28.7634C35.9093 28.6437 35.9704 28.4812 35.9704 28.3119V14.6881C35.9704 14.5187 35.9093 14.3563 35.8007 14.2365C35.6921 14.1168 35.5448 14.0495 35.3912 14.0495Z" fill="black"/>
<path d="M37.3218 14.0495C37.1682 14.0495 37.0209 14.1168 36.9122 14.2365C36.8036 14.3563 36.7426 14.5187 36.7426 14.6881V28.3119C36.7426 28.4812 36.8036 28.6437 36.9122 28.7634C37.0209 28.8832 37.1682 28.9505 37.3218 28.9505C37.4754 28.9505 37.6227 28.8832 37.7314 28.7634C37.84 28.6437 37.901 28.4812 37.901 28.3119V14.6881C37.901 14.5187 37.84 14.3563 37.7314 14.2365C37.6227 14.1168 37.4754 14.0495 37.3218 14.0495Z" fill="black"/>
<path d="M48.5199 14.0495C48.3662 14.0495 48.2189 14.1168 48.1103 14.2365C48.0017 14.3563 47.9406 14.5187 47.9406 14.6881V28.3119C47.9406 28.4812 48.0017 28.6437 48.1103 28.7634C48.2189 28.8832 48.3662 28.9505 48.5199 28.9505C48.6735 28.9505 48.8208 28.8832 48.9294 28.7634C49.038 28.6437 49.0991 28.4812 49.0991 28.3119V14.6881C49.0991 14.5187 49.038 14.3563 48.9294 14.2365C48.8208 14.1168 48.6735 14.0495 48.5199 14.0495Z" fill="black"/>
<path d="M50.4505 14.0495C50.2969 14.0495 50.1495 14.1168 50.0409 14.2365C49.9323 14.3563 49.8713 14.5187 49.8713 14.6881V28.3119C49.8713 28.4812 49.9323 28.6437 50.0409 28.7634C50.1495 28.8832 50.2969 28.9505 50.4505 28.9505C50.6041 28.9505 50.7514 28.8832 50.86 28.7634C50.9687 28.6437 51.0297 28.4812 51.0297 28.3119V14.6881C51.0297 14.5187 50.9687 14.3563 50.86 14.2365C50.7514 14.1168 50.6041 14.0495 50.4505 14.0495Z" fill="black"/>
<path d="M41.5692 14.0495C41.4156 14.0495 41.2683 14.1168 41.1596 14.2365C41.051 14.3563 40.99 14.5187 40.99 14.6881V28.3119C40.99 28.4812 41.051 28.6437 41.1596 28.7634C41.2683 28.8832 41.4156 28.9505 41.5692 28.9505C41.7228 28.9505 41.8701 28.8832 41.9788 28.7634C42.0874 28.6437 42.1484 28.4812 42.1484 28.3119V14.6881C42.1484 14.5187 42.0874 14.3563 41.9788 14.2365C41.8701 14.1168 41.7228 14.0495 41.5692 14.0495Z" fill="black"/>
<path d="M45.4309 14.0495C45.2772 14.0495 45.1299 14.1168 45.0213 14.2365C44.9127 14.3563 44.8517 14.5187 44.8517 14.6881V28.3119C44.8517 28.4812 44.9127 28.6437 45.0213 28.7634C45.1299 28.8832 45.2772 28.9505 45.4309 28.9505C45.5845 28.9505 45.7318 28.8832 45.8404 28.7634C45.9491 28.6437 46.0101 28.4812 46.0101 28.3119V14.6881C46.0101 14.5187 45.9491 14.3563 45.8404 14.2365C45.7318 14.1168 45.5845 14.0495 45.4309 14.0495Z" fill="black"/>
<path d="M55.6632 28.3119V14.6881C55.6632 14.5187 55.6022 14.3563 55.4936 14.2365C55.385 14.1168 55.2376 14.0495 55.084 14.0495C54.9304 14.0495 54.7831 14.1168 54.6745 14.2365C54.5658 14.3563 54.5048 14.5187 54.5048 14.6881V28.3119C54.5048 28.4812 54.5658 28.6437 54.6745 28.7634C54.7831 28.8832 54.9304 28.9505 55.084 28.9505C55.2376 28.9505 55.385 28.8832 55.4936 28.7634C55.6022 28.6437 55.6632 28.4812 55.6632 28.3119Z" fill="black"/>
<path d="M28.0543 16.1782C28.208 16.1782 28.3553 16.1109 28.4639 15.9912C28.5725 15.8714 28.6335 15.709 28.6335 15.5396V11.9208H31.9157C32.0693 11.9208 32.2167 11.8535 32.3253 11.7338C32.4339 11.614 32.4949 11.4516 32.4949 11.2822C32.4949 11.1128 32.4339 10.9504 32.3253 10.8306C32.2167 10.7109 32.0693 10.6436 31.9157 10.6436H28.0543C27.9007 10.6436 27.7534 10.7109 27.6448 10.8306C27.5362 10.9504 27.4751 11.1128 27.4751 11.2822V15.5396C27.4751 15.709 27.5362 15.8714 27.6448 15.9912C27.7534 16.1109 27.9007 16.1782 28.0543 16.1782Z" fill="black"/>
<path d="M59.3315 10.6436H55.4701C55.3165 10.6436 55.1692 10.7109 55.0606 10.8306C54.952 10.9504 54.8909 11.1128 54.8909 11.2822C54.8909 11.4516 54.952 11.614 55.0606 11.7338C55.1692 11.8535 55.3165 11.9208 55.4701 11.9208H58.7523V15.5396C58.7523 15.709 58.8133 15.8714 58.922 15.9912C59.0306 16.1109 59.1779 16.1782 59.3315 16.1782C59.4851 16.1782 59.6325 16.1109 59.7411 15.9912C59.8497 15.8714 59.9107 15.709 59.9107 15.5396V11.2822C59.9107 11.1128 59.8497 10.9504 59.7411 10.8306C59.6325 10.7109 59.4851 10.6436 59.3315 10.6436Z" fill="black"/>
<path d="M31.9157 31.505H28.6335V28.3119C28.6335 28.1425 28.5725 27.9801 28.4639 27.8603C28.3553 27.7406 28.208 27.6733 28.0543 27.6733C27.9007 27.6733 27.7534 27.7406 27.6448 27.8603C27.5362 27.9801 27.4751 28.1425 27.4751 28.3119V32.1436C27.4751 32.3129 27.5362 32.4754 27.6448 32.5951C27.7534 32.7149 27.9007 32.7822 28.0543 32.7822H31.9157C32.0693 32.7822 32.2167 32.7149 32.3253 32.5951C32.4339 32.4754 32.4949 32.3129 32.4949 32.1436C32.4949 31.9742 32.4339 31.8118 32.3253 31.692C32.2167 31.5722 32.0693 31.505 31.9157 31.505Z" fill="black"/>
<path d="M59.3315 27.6733C59.1779 27.6733 59.0306 27.7406 58.922 27.8603C58.8133 27.9801 58.7523 28.1425 58.7523 28.3119V31.505H55.4701C55.3165 31.505 55.1692 31.5722 55.0606 31.692C54.952 31.8118 54.8909 31.9742 54.8909 32.1436C54.8909 32.3129 54.952 32.4754 55.0606 32.5951C55.1692 32.7149 55.3165 32.7822 55.4701 32.7822H59.3315C59.4851 32.7822 59.6325 32.7149 59.7411 32.5951C59.8497 32.4754 59.9107 32.3129 59.9107 32.1436V28.3119C59.9107 28.1425 59.8497 27.9801 59.7411 27.8603C59.6325 27.7406 59.4851 27.6733 59.3315 27.6733Z" fill="black"/>
</svg>
