<svg width="90" height="44" viewBox="0 0 90 44" fill="black" xmlns="http://www.w3.org/2000/svg">
<path d="M14.2564 32.4688L17.0454 39.4297L19.8345 32.4688H21.2935V41H20.1685V37.6777L20.274 34.0918L17.4732 41H16.6119L13.8169 34.1094L13.9283 37.6777V41H12.8033V32.4688H14.2564ZM27.024 41C26.9615 40.875 26.9107 40.6523 26.8716 40.332C26.3677 40.8555 25.7661 41.1172 25.0669 41.1172C24.4419 41.1172 23.9283 40.9414 23.5259 40.5898C23.1275 40.2344 22.9283 39.7852 22.9283 39.2422C22.9283 38.582 23.1783 38.0703 23.6783 37.707C24.1822 37.3398 24.8892 37.1562 25.7994 37.1562H26.854V36.6582C26.854 36.2793 26.7408 35.9785 26.5142 35.7559C26.2876 35.5293 25.9536 35.416 25.5122 35.416C25.1255 35.416 24.8013 35.5137 24.5396 35.709C24.2779 35.9043 24.147 36.1406 24.147 36.418H23.0572C23.0572 36.1016 23.1685 35.7969 23.3911 35.5039C23.6177 35.207 23.9224 34.9727 24.3052 34.8008C24.6919 34.6289 25.1158 34.543 25.5767 34.543C26.3072 34.543 26.8794 34.7266 27.2935 35.0938C27.7076 35.457 27.9224 35.959 27.938 36.5996V39.5176C27.938 40.0996 28.0122 40.5625 28.1607 40.9062V41H27.024ZM25.2251 40.1738C25.565 40.1738 25.8872 40.0859 26.1919 39.9102C26.4966 39.7344 26.7173 39.5059 26.854 39.2246V37.9238H26.0044C24.6763 37.9238 24.0122 38.3125 24.0122 39.0898C24.0122 39.4297 24.1255 39.6953 24.3521 39.8867C24.5786 40.0781 24.8697 40.1738 25.2251 40.1738ZM34.9927 37.9004C34.9927 38.8652 34.772 39.6426 34.3306 40.2324C33.8892 40.8223 33.2915 41.1172 32.5376 41.1172C31.7681 41.1172 31.1626 40.873 30.7212 40.3848V43.4375H29.6372V34.6602H30.6275L30.6802 35.3633C31.1216 34.8164 31.7349 34.543 32.5201 34.543C33.2818 34.543 33.8833 34.8301 34.3247 35.4043C34.7701 35.9785 34.9927 36.7773 34.9927 37.8008V37.9004ZM33.9087 37.7773C33.9087 37.0625 33.7564 36.498 33.4517 36.084C33.147 35.6699 32.729 35.4629 32.1978 35.4629C31.5415 35.4629 31.0494 35.7539 30.7212 36.3359V39.3652C31.0454 39.9434 31.5415 40.2324 32.2095 40.2324C32.729 40.2324 33.1411 40.0273 33.4458 39.6172C33.7544 39.2031 33.9087 38.5898 33.9087 37.7773ZM40.2896 41C40.2271 40.875 40.1763 40.6523 40.1372 40.332C39.6333 40.8555 39.0318 41.1172 38.3326 41.1172C37.7076 41.1172 37.1939 40.9414 36.7915 40.5898C36.3931 40.2344 36.1939 39.7852 36.1939 39.2422C36.1939 38.582 36.4439 38.0703 36.9439 37.707C37.4478 37.3398 38.1548 37.1562 39.065 37.1562H40.1197V36.6582C40.1197 36.2793 40.0064 35.9785 39.7798 35.7559C39.5533 35.5293 39.2193 35.416 38.7779 35.416C38.3911 35.416 38.0669 35.5137 37.8052 35.709C37.5435 35.9043 37.4126 36.1406 37.4126 36.418H36.3228C36.3228 36.1016 36.4341 35.7969 36.6568 35.5039C36.8833 35.207 37.188 34.9727 37.5708 34.8008C37.9576 34.6289 38.3814 34.543 38.8423 34.543C39.5728 34.543 40.1451 34.7266 40.5591 35.0938C40.9732 35.457 41.188 35.959 41.2036 36.5996V39.5176C41.2036 40.0996 41.2779 40.5625 41.4263 40.9062V41H40.2896ZM38.4908 40.1738C38.8306 40.1738 39.1529 40.0859 39.4576 39.9102C39.7622 39.7344 39.9829 39.5059 40.1197 39.2246V37.9238H39.2701C37.9419 37.9238 37.2779 38.3125 37.2779 39.0898C37.2779 39.4297 37.3911 39.6953 37.6177 39.8867C37.8443 40.0781 38.1353 40.1738 38.4908 40.1738ZM47.3501 33.125V34.6602H48.5337V35.498H47.3501V39.4297C47.3501 39.6836 47.4029 39.875 47.5083 40.0039C47.6138 40.1289 47.7935 40.1914 48.0474 40.1914C48.1724 40.1914 48.3443 40.168 48.563 40.1211V41C48.2779 41.0781 48.0005 41.1172 47.731 41.1172C47.2466 41.1172 46.8814 40.9707 46.6353 40.6777C46.3892 40.3848 46.2661 39.9688 46.2661 39.4297V35.498H45.1119V34.6602H46.2661V33.125H47.3501ZM50.9829 41H49.899V34.6602H50.9829V41ZM49.8111 32.9785C49.8111 32.8027 49.8638 32.6543 49.9693 32.5332C50.0786 32.4121 50.2388 32.3516 50.4497 32.3516C50.6607 32.3516 50.8208 32.4121 50.9302 32.5332C51.0396 32.6543 51.0943 32.8027 51.0943 32.9785C51.0943 33.1543 51.0396 33.3008 50.9302 33.418C50.8208 33.5352 50.6607 33.5938 50.4497 33.5938C50.2388 33.5938 50.0786 33.5352 49.9693 33.418C49.8638 33.3008 49.8111 33.1543 49.8111 32.9785ZM55.354 41.1172C54.4947 41.1172 53.7954 40.8359 53.2564 40.2734C52.7173 39.707 52.4478 38.9512 52.4478 38.0059V37.8066C52.4478 37.1777 52.5669 36.6172 52.8052 36.125C53.0474 35.6289 53.3833 35.2422 53.813 34.9648C54.2466 34.6836 54.7154 34.543 55.2193 34.543C56.0435 34.543 56.6841 34.8145 57.1411 35.3574C57.5982 35.9004 57.8267 36.6777 57.8267 37.6895V38.1406H53.5318C53.5474 38.7656 53.729 39.2715 54.0767 39.6582C54.4283 40.041 54.8736 40.2324 55.4126 40.2324C55.7954 40.2324 56.1197 40.1543 56.3853 39.998C56.6509 39.8418 56.8833 39.6348 57.0826 39.377L57.7447 39.8926C57.2134 40.709 56.4165 41.1172 55.354 41.1172ZM55.2193 35.4336C54.7818 35.4336 54.4146 35.5938 54.1177 35.9141C53.8208 36.2305 53.6372 36.6758 53.5669 37.25H56.7427V37.168C56.7115 36.6172 56.563 36.1914 56.2974 35.8906C56.0318 35.5859 55.6724 35.4336 55.2193 35.4336ZM60.1119 34.6602L60.147 35.457C60.6314 34.8477 61.2642 34.543 62.0454 34.543C63.3853 34.543 64.0611 35.2988 64.0728 36.8105V41H62.9888V36.8047C62.9849 36.3477 62.8794 36.0098 62.6724 35.791C62.4693 35.5723 62.1509 35.4629 61.7173 35.4629C61.3658 35.4629 61.0572 35.5566 60.7915 35.7441C60.5259 35.9316 60.3189 36.1777 60.1704 36.4824V41H59.0865V34.6602H60.1119ZM65.4439 37.7773C65.4439 36.8047 65.6743 36.0234 66.1353 35.4336C66.5962 34.8398 67.1997 34.543 67.9458 34.543C68.688 34.543 69.2759 34.7969 69.7095 35.3047V32H70.7935V41H69.7974L69.7447 40.3203C69.3111 40.8516 68.7076 41.1172 67.9341 41.1172C67.1997 41.1172 66.6001 40.8164 66.1353 40.2148C65.6743 39.6133 65.4439 38.8281 65.4439 37.8594V37.7773ZM66.5279 37.9004C66.5279 38.6191 66.6763 39.1816 66.9732 39.5879C67.2701 39.9941 67.6802 40.1973 68.2036 40.1973C68.8911 40.1973 69.3931 39.8887 69.7095 39.2715V36.3594C69.3853 35.7617 68.8872 35.4629 68.2154 35.4629C67.6841 35.4629 67.2701 35.668 66.9732 36.0781C66.6763 36.4883 66.5279 37.0957 66.5279 37.9004ZM76.3951 41C76.3326 40.875 76.2818 40.6523 76.2427 40.332C75.7388 40.8555 75.1372 41.1172 74.438 41.1172C73.813 41.1172 73.2993 40.9414 72.897 40.5898C72.4986 40.2344 72.2993 39.7852 72.2993 39.2422C72.2993 38.582 72.5493 38.0703 73.0493 37.707C73.5533 37.3398 74.2603 37.1562 75.1704 37.1562H76.2251V36.6582C76.2251 36.2793 76.1118 35.9785 75.8853 35.7559C75.6587 35.5293 75.3247 35.416 74.8833 35.416C74.4966 35.416 74.1724 35.5137 73.9107 35.709C73.649 35.9043 73.5181 36.1406 73.5181 36.418H72.4283C72.4283 36.1016 72.5396 35.7969 72.7622 35.5039C72.9888 35.207 73.2935 34.9727 73.6763 34.8008C74.063 34.6289 74.4868 34.543 74.9478 34.543C75.6783 34.543 76.2505 34.7266 76.6646 35.0938C77.0786 35.457 77.2935 35.959 77.3091 36.5996V39.5176C77.3091 40.0996 77.3833 40.5625 77.5318 40.9062V41H76.3951ZM74.5962 40.1738C74.9361 40.1738 75.2583 40.0859 75.563 39.9102C75.8677 39.7344 76.0884 39.5059 76.2251 39.2246V37.9238H75.3755C74.0474 37.9238 73.3833 38.3125 73.3833 39.0898C73.3833 39.4297 73.4966 39.6953 73.7232 39.8867C73.9497 40.0781 74.2408 40.1738 74.5962 40.1738Z" fill="black" fill-opacity="0.54"/>
<path d="M55.2066 8.86713L48.9119 6.07581C48.7211 5.99125 48.5018 5.99125 48.311 6.07581L46.2386 6.99483C46.3185 7.20244 46.3206 7.43793 46.1957 7.66066C46.0226 7.96936 45.8001 8.24334 45.5435 8.48449C45.5135 8.5341 45.4818 8.58299 45.45 8.63141C45.3917 8.74596 45.3346 8.86099 45.2794 8.97672L48.6117 7.4991L54.1801 9.96825V24.8807L48.9121 22.5448C48.7213 22.4602 48.502 22.4602 48.3112 22.5448L42.317 25.2029L36.3225 22.545C36.2271 22.5027 36.1245 22.4815 36.022 22.4815C35.9196 22.4815 35.817 22.5027 35.7216 22.545L30.4537 24.881V9.96849L36.022 7.49934L39.1004 8.86429C38.9115 8.62149 38.7186 8.36498 38.4896 8.10352C38.1782 7.74781 38.237 7.32101 38.4605 7.02388L36.3225 6.07581C36.1317 5.99125 35.9124 5.99125 35.7216 6.07581L29.4269 8.86713C29.1676 8.98215 29.001 9.23441 29.001 9.51217V25.9811C29.001 26.222 29.1264 26.4464 29.3342 26.577C29.5419 26.7074 29.8034 26.7261 30.0278 26.6262L36.022 23.9681L42.0163 26.6262C42.2071 26.7107 42.4264 26.7107 42.6172 26.6262L48.6114 23.9681L54.6057 26.6262C54.7015 26.6687 54.804 26.6897 54.9061 26.6897C55.0434 26.6897 55.1802 26.6517 55.2993 26.577C55.507 26.4467 55.6324 26.222 55.6324 25.9811V9.51217C55.6324 9.23441 55.4659 8.98215 55.2066 8.86713Z" fill="black"/>
<path d="M29.7278 21.493C29.7145 21.493 29.7012 21.4923 29.6876 21.4914C29.4216 21.4699 29.2235 21.2431 29.2446 20.9835C29.246 20.9665 29.2807 20.5598 29.4552 19.9667C29.529 19.7159 29.7978 19.5713 30.0542 19.6429C30.3113 19.7149 30.4597 19.9767 30.3861 20.2273C30.2406 20.7221 30.2101 21.0565 30.2098 21.0598C30.1883 21.3064 29.9767 21.493 29.7278 21.493Z" fill="black"/>
<path d="M47.1588 21.2575C46.4858 21.2575 45.8991 21.1746 45.3653 21.0048C45.1111 20.9238 44.9724 20.6571 45.0552 20.4091C45.1382 20.1611 45.4125 20.026 45.6657 20.1066C46.101 20.2452 46.5894 20.3125 47.1588 20.3128C47.2048 20.3128 47.2503 20.3118 47.2951 20.3094C47.5619 20.2953 47.7895 20.4972 47.8026 20.758C47.8159 21.0185 47.6101 21.2403 47.3428 21.253C47.2825 21.2561 47.221 21.2575 47.1588 21.2575ZM48.9973 20.6259C48.8557 20.6259 48.715 20.5657 48.6194 20.4495C48.4519 20.2461 48.485 19.9488 48.6935 19.7853C49.055 19.5019 49.3905 19.1049 49.7491 18.5359C49.889 18.3139 50.187 18.2442 50.4151 18.3809C50.6429 18.5177 50.7139 18.8087 50.5739 19.0307C50.1553 19.6946 49.7508 20.1684 49.3 20.5218C49.2109 20.5917 49.1039 20.6259 48.9973 20.6259ZM43.9785 20.0971C43.8543 20.0971 43.7304 20.0508 43.6357 19.9582C43.1798 19.5123 42.8237 18.9936 42.4685 18.4572C42.3235 18.238 42.3881 17.9456 42.6128 17.8042C42.8372 17.6624 43.1372 17.7257 43.2822 17.9449C43.6202 18.456 43.9318 18.91 44.3213 19.2912C44.5102 19.4759 44.5097 19.7749 44.3204 19.9592C44.226 20.0513 44.1022 20.0971 43.9785 20.0971ZM30.6471 18.9324C30.5624 18.9324 30.4766 18.9107 30.3987 18.8651C30.1692 18.731 30.0948 18.4409 30.2321 18.217C30.573 17.662 30.9872 17.1603 31.463 16.7259C31.6584 16.5479 31.9646 16.558 32.1474 16.7481C32.33 16.9387 32.3198 17.2375 32.1246 17.4159C31.7145 17.7902 31.3572 18.2232 31.0628 18.7026C30.9722 18.8505 30.8117 18.9324 30.6471 18.9324ZM51.039 17.6835C50.9637 17.6835 50.8874 17.6662 50.816 17.6301C50.5788 17.5096 50.4863 17.2245 50.6095 16.9931C50.8976 16.4524 51.209 15.8832 51.5675 15.3912C51.7227 15.1784 52.0248 15.129 52.2427 15.28C52.4606 15.4314 52.5117 15.7261 52.3568 15.9387C52.034 16.3813 51.7413 16.9175 51.469 17.4286C51.3825 17.5906 51.2138 17.6835 51.039 17.6835ZM41.8161 17.2151C41.6807 17.2151 41.5461 17.1601 41.4502 17.0526C41.058 16.6123 40.6527 16.2996 40.1746 16.0681C39.9349 15.9522 39.8371 15.6687 39.956 15.4352C40.0748 15.2011 40.3651 15.1059 40.6048 15.2219C41.1934 15.5067 41.709 15.9028 42.1811 16.4331C42.3567 16.63 42.3351 16.9284 42.1332 17.0994C42.0417 17.1771 41.9286 17.2151 41.8161 17.2151ZM33.2896 16.5181C33.1146 16.5181 32.9456 16.425 32.8594 16.2628C32.7364 16.0313 32.8292 15.746 33.0667 15.626C33.6208 15.3459 34.2324 15.1227 34.8844 14.9623C35.1439 14.8995 35.4068 15.052 35.4722 15.305C35.5376 15.558 35.3802 15.8147 35.1209 15.8785C34.5413 16.0209 34.0002 16.2181 33.5121 16.4647C33.4407 16.5011 33.3647 16.5181 33.2896 16.5181ZM38.6399 15.6378C38.6215 15.6378 38.6029 15.6369 38.5842 15.6347C38.3126 15.6045 38.0208 15.5889 37.7168 15.5889C37.4185 15.5865 37.1275 15.5986 36.8454 15.618C36.5764 15.6364 36.3472 15.4399 36.3285 15.1798C36.3099 14.9195 36.5108 14.6937 36.7776 14.6756C37.0822 14.6548 37.3965 14.6397 37.717 14.6444C38.0576 14.6444 38.3867 14.6619 38.6946 14.6963C38.9602 14.7261 39.151 14.9604 39.1205 15.2195C39.0921 15.4602 38.8827 15.6378 38.6399 15.6378Z" fill="black"/>
<path d="M53.3572 14.9422C53.1678 14.9422 52.9882 14.8333 52.9105 14.6524C52.8071 14.4117 52.9231 14.1352 53.1698 14.0341C53.5211 13.8902 53.9016 13.8175 54.3009 13.8175C54.5682 13.8175 54.7851 14.0291 54.7851 14.2899C54.7851 14.5506 54.5682 14.7622 54.3009 14.7622C54.0273 14.7622 53.7796 14.809 53.5443 14.9054C53.483 14.9304 53.4196 14.9422 53.3572 14.9422Z" fill="black"/>
<path d="M36.022 23.6622C35.7548 23.6622 35.5378 23.4506 35.5378 23.1898V7.086C35.5378 6.82525 35.7548 6.61362 36.022 6.61362C36.2893 6.61362 36.5063 6.82525 36.5063 7.086V23.1901C36.5063 23.4508 36.2893 23.6622 36.022 23.6622Z" fill="black"/>
<path d="M42.3167 26.2176C42.0492 26.2176 41.8325 26.0059 41.8325 25.7452V12.7546C41.8325 12.4939 42.0492 12.2822 42.3167 12.2822C42.584 12.2822 42.8009 12.4939 42.8009 12.7546V25.7452C42.8009 26.0059 42.584 26.2176 42.3167 26.2176Z" fill="black"/>
<path d="M48.6115 23.6622C48.3439 23.6622 48.1273 23.4506 48.1273 23.1898V7.086C48.1273 6.82525 48.3439 6.61362 48.6115 6.61362C48.8787 6.61362 49.0957 6.82525 49.0957 7.086V23.1901C49.0957 23.4508 48.8787 23.6622 48.6115 23.6622Z" fill="black"/>
<path d="M42.4378 13.7648C42.2194 13.7648 42.0125 13.6689 41.8747 13.5036C41.3919 12.9254 37.1595 7.77804 37.1595 5.14946C37.1595 2.30996 39.5273 0 42.4378 0C45.3482 0 47.7162 2.30996 47.7162 5.14946C47.7162 7.77804 43.4837 12.9251 43.001 13.5036C42.8632 13.6689 42.6562 13.7648 42.4378 13.7648ZM42.4378 1.41739C40.3284 1.41739 38.6121 3.09175 38.6121 5.1497C38.6121 6.58433 40.7683 9.79725 42.4376 11.9138C44.1071 9.79654 46.2633 6.58315 46.2633 5.1497C46.2633 3.09175 44.5473 1.41739 42.4378 1.41739Z" fill="black"/>
<path d="M42.4378 7.24661C41.2524 7.24661 40.2881 6.30586 40.2881 5.1497C40.2881 3.9933 41.2524 3.05255 42.4378 3.05255C43.6231 3.05255 44.5874 3.9933 44.5874 5.1497C44.5874 6.30586 43.6231 7.24661 42.4378 7.24661ZM42.4378 3.99732C41.7865 3.99732 41.2566 4.51411 41.2566 5.1497C41.2566 5.78506 41.7863 6.30185 42.4378 6.30185C43.089 6.30185 43.619 5.78482 43.619 5.1497C43.619 4.51411 43.089 3.99732 42.4378 3.99732Z" fill="black"/>
</svg>
